<?xml version="1.0" standalone="no"?>
<!DOCTYPE svg PUBLIC "-//W3C//DTD SVG 1.1//EN" "http://www.w3.org/Graphics/SVG/1.1/DTD/svg11.dtd" >
<!--
2013-9-30: Created.
-->
<svg>
<metadata>
Created by iconfont
</metadata>
<defs>

<font id="iconfont" horiz-adv-x="1024" >
  <font-face
    font-family="iconfont"
    font-weight="500"
    font-stretch="normal"
    units-per-em="1024"
    ascent="896"
    descent="-128"
  />
    <missing-glyph />
    
    <glyph glyph-name="arrow-right-circle" unicode="&#58893;" d="M792.797779 103.91393000000005c71.14434 71.800279 115.542526 170.937161 115.542526 280.334733 0 109.398596-44.398186 208.534454-115.542526 280.334733-71.713298 71.222111-170.742732 115.669416-280.025695 115.669416l0 0c-109.282962 0-208.303186-44.447305-280.026718-115.669416l0 0c-71.704089-71.800279-116.111484-170.936137-116.111484-280.334733l0 0 0 0 0 0c0-109.397572 44.407396-208.534454 116.111484-280.334733 71.724555-71.78186 170.743756-116.227118 280.026718-116.227118l0 0 0 0C622.055047-12.313187999999968 721.084481 32.13104699999997 792.797779 103.91393000000005L792.797779 103.91393000000005zM829.228503 701.0437959999999c80.8197-81.484849 130.909515-193.140858 130.909515-316.796156 0-123.634832-50.088792-235.888452-130.909515-316.795133-81.387635-80.906681-192.947454-131.043568-316.456419-131.043568-123.500778 0-235.637742 50.135864-316.447209 131.043568C115.495966 148.35918800000002 65.416384 260.613832 65.416384 384.248663c0 123.655298 50.079582 235.310284 130.908492 316.796156C277.13332 781.950478 389.271306 832.106808 512.772085 832.106808l0 0C636.281049 832.106808 747.840868 781.950478 829.228503 701.0437959999999L829.228503 701.0437959999999zM434.239474 623.551888c4.551666 4.572132 10.803044 7.408737 18.210757 7.408737l0 0c3.412726 0 6.828522-0.559748 9.66308-1.717108 3.415796-1.697665 6.27082-3.39533 8.547677-5.691629l0 0 200.913892-221.054605c2.276856-2.856048 3.984754-5.130857 5.691629-8.565073 1.137916-2.855024 1.706875-6.250354 1.706875-9.68457 0-3.413749-0.568958-6.829546-1.706875-10.263761-1.706875-2.834558-3.414773-5.689582-5.691629-7.966439L470.659965 144.94441600000005l0 0c-2.276856-2.854001-5.131881-4.552689-8.547677-5.690606-2.835581-1.137916-6.250354-2.276856-9.66308-2.276856-7.407714 0-13.659091 3.413749-18.210757 7.966439l0 0c-4.552689 4.553713-7.407714 10.82351-7.407714 18.2302 0 3.414773 0.559748 6.847965 1.697665 9.683547 1.157359 2.856048 3.433192 5.711072 5.710049 7.987928l184.401824 203.402573L434.239474 587.0925110000001c-2.276856 2.275833-4.552689 5.131881-5.710049 7.966439-1.137916 3.433192-1.697665 6.848988-1.697665 10.262738C426.830737 612.15021 429.685761 618.999199 434.239474 623.551888L434.239474 623.551888z"  horiz-adv-x="1024" />

    
    <glyph glyph-name="wechat" unicode="&#58977;" d="M369.05000028 602.475q0 20.5875-12.5624997 33.14999971t-33.14999971 12.5624997q-21.6 0-38.17500029-12.80625029t-16.5750003-32.88750029q0-19.59374971 16.5750003-32.4t38.17500029-12.80625029q20.5875 0 33.14999971 12.30000029t12.5624997 32.88750029zM742.21250028 347.83124999999995q0 14.0625-12.80625029 25.10624971t-32.88750029 11.0437497q-13.55625 0-24.8625-11.30625t-11.30625-24.86249999q0-14.0625 11.30625-25.36875001t24.8625-11.30625q20.08125 0 32.88750029 11.04374971t12.80625029 25.61249971zM623.6749997 602.475q0 20.5875-12.3000003 33.14999971t-32.88750029 12.5624997q-21.6 0-38.17500029-12.80625029t-16.57500029-32.88750029q0-19.59374971 16.57500029-32.4t38.17500029-12.80625029q20.5875 0 32.88750029 12.30000029t12.3000003 32.88750029zM942.59374999 347.83124999999995q0 14.0625-13.05 25.10624971t-32.64374971 11.0437497q-13.55625 0-24.8625-11.30625t-11.30625-24.86249999q0-14.0625 11.30625-25.36875001t24.8625-11.30625q19.59374971 0 32.64374971 11.04374971t13.05 25.61249971zM808.99999999 547.21875029q-15.56250029 2.00625029-35.15625 2.0062503-84.88125 0-156.18750029-38.6812503t-112.2562503-104.71875029-40.93125029-144.39375q0-39.16874971 11.54999971-76.33125-17.58750029-1.50000029-34.14375-1.50000029-13.05 0-25.10624971 0.74999971t-27.61875 3.2625-22.34999971 3.52500029-27.37500029 5.26875029-25.10624971 5.26875029l-127.06875-63.7875 36.16875 109.48124971q-145.64999971 101.96250029-145.6499997 246.09375 0 84.88125 48.97500029 156.18750029t132.58125 112.2562503 182.56875029 40.93125029q88.38749971 0 166.98750029-33.14999971t131.58749971-91.64999971 68.5500003-130.8375zM1106.31875028 265.48125000000005q0-58.76250029-34.40625029-112.25625029t-93.16874971-97.1812503l27.61875-90.9-99.93750029 54.74999971q-75.33749971-18.58124971-109.48124971-18.58124971-84.88125 0-156.18750029 35.39999971t-112.25625029 96.16875029-40.9312503 132.58125 40.9312503 132.58125 112.25625029 96.1687503 156.18750029 35.39999971q80.86875029 0 152.17499971-35.39999971t114.26249971-96.43124971 42.9374997-132.33750029z"  horiz-adv-x="1174" />

    
    <glyph glyph-name="camera" unicode="&#58932;" d="M962 53.622135060000005L62 53.622135060000005 62 639.97785234l303.01570898 0L429.48100127 714.37786494l166.69603652 0 74.40001172-74.40001171 291.42295049 0C962 639.97785234 962 53.622135060000005 962 53.622135060000005zM91.76811435 83.35871162000001l840.49981436 0L932.26792959 610.24578193l-274.02254737 0-74.40001172 74.40001172-140.75312607 0L378.64046797 610.24578193 91.76811435 610.24578193 91.76811435 83.35871162000001zM512.00901143 139.08325223999998c-109.39005 0-198.38351162 89.02500117-198.38351163 198.39702833s89.00697832 198.36548964 198.38351163 198.36548964c109.35851133 0 198.36548964-89.00697832 198.36548964-198.36548964C710.3880169 228.09023057000002 621.3630166 139.08325223999998 512.00901143 139.08325223999998zM512.00901143 506.06413916c-92.97636065 0-168.63341924-75.62551904-168.63341924-168.59737442 0-92.98987734 75.65705859-168.63341924 168.63341924-168.63341923s168.61539727 75.63903574 168.61539726 168.63341923C680.62440781 430.43861924 604.99888877 506.06413916 512.00901143 506.06413916zM151.13763916 555.69718711l84.29868721 0 0-34.73322188-84.29868721 0 0 34.73322188Z"  horiz-adv-x="1024" />

    
    <glyph glyph-name="twitter" unicode="&#59180;" d="M964.63367282 659.77958286c-33.15446557-14.70737522-68.81682318-24.65045504-106.22562304-29.13066212 38.17024854 22.9040128 67.49534891 59.12872391 81.32484551 102.31359147-35.75084373-21.18551325-75.3287259-36.59379372-117.43778475-44.87775232-33.74825586 35.94644594-81.80569885 58.39754695-134.99186176 58.39754696-102.14244011 0-184.93546155-82.79185635-184.93546155-184.93546155 0-14.50595214 1.63350642-28.61953708 4.78874512-42.13933056-153.69509661 7.71461917-289.98281899 81.35511723-381.19718572 193.24270706-15.91474859-27.32484039-25.0416583-59.06934557-25.04165831-92.98991673 0-64.16895772 32.64799744-120.76068295 82.28189525-153.94542024-30.30776491 0.95705087-58.81436501 9.26546034-83.77452202 23.12289963-0.02910777-0.76028473-0.02910777-1.54501917-0.02910777-2.33557561 0-89.60880414 63.74631881-164.34490368 148.34050389-181.32847616-15.51772445-4.22522654-31.85860608-6.48279495-48.73040554-6.48279495-11.92005291 0-23.49663799 1.15847394-34.79262891 3.3263912 23.51992491-73.46818162 91.83610083-126.93493987 172.76857799-128.42523762-63.30039296-49.60944812-143.04994759-79.15692829-229.70027804-79.1569283-14.92859107 0-29.63596629 0.87322169-44.11281067 2.59055616 81.83597057-52.48409259 179.0464569-83.10155947 283.50468096-83.10155947 340.17557844 0 526.18568477 281.81179619 526.18568476 526.2147914 0 8.0289792-0.17231531 15.99741383-0.53557588 23.91345608 36.14321097 26.08835926 67.49651285 58.65369145 92.2831906 95.72484664L964.63367282 659.7772549700001 964.63367282 659.77958286zM964.63367282 659.77958286"  horiz-adv-x="1024" />

    
    <glyph glyph-name="facebook" unicode="&#58930;" d="M733.14122159 823.96926866C718.62881589 826.10256224 668.75181076 830.39919582 610.7923271 830.39919582 489.52510261 830.39919582 406.38674528 756.36489424 406.38674528 620.61531043L406.38674528 503.64471952 269.55549147 503.64471952 269.55549147 344.81950923 406.38674528 344.81950923 406.38674528-62.399195820000045 570.56021273-62.399195820000045 570.56021273 344.81950923 706.85063154 344.81950923 727.76291803 503.64471952 570.56021273 503.64471952 570.56021273 605.05128112C570.56021273 650.66169906 582.90927846 682.3005462799999 648.89114789 682.3005462799999L733.14122159 682.3005462799999 733.14122159 823.96926866Z"  horiz-adv-x="1024" />

    
    <glyph glyph-name="weibo" unicode="&#59191;" d="M401.00669668 189.13392832q10.546875 17.07589248 5.52455332 34.65401836t-22.60044668 25.11160664q-17.07589248 7.03125-36.6629458 0.50223252t-30.1339292-23.10267832q-11.04910752-17.07589248-6.52901748-34.40290254t21.59598164-25.36272246 37.41629502-1.25558086T401.00669668 189.13392832z m47.2098208 60.77008916q4.01785752 6.52901748 1.7578125 13.30915254T441.18526748 272.50446416q-7.03125 2.51116084-14.31361582-0.25111582T416.07366084 262.96205333q-8.53794668-15.56919668 6.52901748-22.60044581 7.03125-2.51116084 14.56473252 0.25111582t11.04910664 9.29129414z m87.38839336-53.73883915q-22.60044668-51.22767832-79.35267832-75.33482081t-112.5-6.02678584q-53.73883916 17.07589248-74.0792417 63.53236582T272.9375 272.50446416q23.60491084 46.70758916 76.08817002 69.81026836T454.74553584 351.85714248q55.74776748-14.56473252 79.60379414-60.01674082T535.60491084 196.16517832z m156.69642832 80.35714335q-4.52008916 48.21428584-44.69866083 85.37946416T542.88727666 416.64508916 405.02455332 427.19196416q-111.99776748-11.55133916-185.57477666-71.06584833T152.90401748 223.28571416q4.52008916-48.21428584 44.69866084-85.37946416t104.71540166-54.74330332 137.86272334-10.546875q111.99776748 11.55133916 185.57477666 71.06584834T692.30133916 276.52232168z m154.6875-2.0089292q0-34.15178584-18.58258916-70.0613833t-54.74330332-68.8058042-84.6261167-59.01227665-113.50446415-41.68526749-135.85379415-15.56919668-138.11383916 16.82477667-120.78683086 46.70758915-86.1328125 75.8370542T62 258.94419667q0 57.75669668 34.90513418 123.04687501T196.09598252 511.56696416q84.87723252 84.87723252 171.51227666 118.52678584t123.80022334-3.515625q32.64508916-32.14285752 10.04464248-104.96651748-2.00892833-7.03125-0.50223252-10.04464336t5.02232168-3.515625 7.28236582 0.25111582T520.03571416 510.06026748l3.01339336 1.00446504q69.81026748 29.63169668 123.54910664 29.6316958t76.84151836-30.63616084q22.60044668-31.640625 0-89.3973208-1.00446416-6.52901748-2.26004502-10.04464336t2.26004502-6.27790166 6.02678496-3.76674082 8.53794668-3.01339336q28.62723252-9.04017832 51.72991084-23.60490996t40.17857168-40.93192002 17.07589248-58.51004502z m-37.16517832 313.39285752q21.09375-23.60491084 27.37165166-54.4921875T833.93080332 474.40178584q-4.01785752-11.55133916-14.81584834-17.07589336t-22.34932998-2.00892832q-11.55133916 4.01785752-17.07589248 14.81584834t-2.0089292 22.34932998q10.04464248 31.640625-12.0535708 55.74776836t-53.73884004 17.578125q-12.05357168-2.51116084-22.6004458 4.01785664t-12.5558042 18.58259004q-2.51116084 12.05357168 4.01785752 22.34932998t18.58258916 12.80692002q30.13392832 6.52901748 59.765625-2.76227754t50.72544668-32.89620498z m90.90401748 81.86383916q43.69419668-48.21428584 56.5011167-111.74665166T950.44866084 436.734375q-4.52008916-13.56026748-17.07589336-20.08928584t-26.1160708-2.00892832-20.08928584 17.07589248-2.51116084 26.11607168q14.0625 41.18303584 5.02232168 86.38392832t-40.17857168 79.3526792q-31.13839248 34.65401748-74.33035752 47.96316914t-86.88615996 4.26897334q-14.0625-3.01339248-26.11607168 4.77120498t-15.06696416 21.84709835 4.77120498 25.86495585T673.71875 743.09598252q61.77455332 13.05803584 122.54464248-5.77567002T900.72767832 669.77008916z"  horiz-adv-x="1024" />

    
    <glyph glyph-name="address" unicode="&#58949;" d="M506.33984115-85.69907255999999L213.85787072 311.37035939c-39.75643254 59.05727321-60.54195326 127.18759122-60.54195327 197.62741147 0 194.65805138 158.36587232 353.02392371 353.0239237 353.02392371s353.02392371-158.36587232 353.02392371-353.02392371c0-75.3887538-23.75488084-147.4782186-68.79017578-208.68002966l-284.23374793-386.01681376z m0 905.15993894c-171.06813498 0-310.29813107-139.22999608-310.29813108-310.46309552 0-62.02663332 18.14608953-121.74376436 52.62365968-173.0477084l2.96936011-4.12411126 254.70511129-345.76548787 249.92114226 339.4968388c39.59146807 53.7784108 60.37698883 117.12475973 60.37698879 183.44046873 0 171.23309944-139.22999608 310.46309552-310.29813105 310.46309552zM506.33984115 340.40410263c-86.27640752 0-156.38629891 70.27485584-156.38629891 156.38629892s70.27485584 156.38629891 156.38629891 156.38629891S662.72614006 582.90184462 662.72614006 496.79040155s-70.10989137-156.38629891-156.38629891-156.38629892z m0 270.37673408c-62.85145558 0-113.82547075-51.1389796-113.82547071-113.82547071s51.1389796-113.82547075 113.82547071-113.82547074 113.82547075 51.1389796 113.82547073 113.82547074-51.1389796 113.82547075-113.82547073 113.82547071z"  horiz-adv-x="1024" />

    
    <glyph glyph-name="arrow-right-square" unicode="&#58950;" d="M960.59338004-57.90598410999996H69.06625113V833.62114481h891.52712891v-891.52712892z m-855.54697446 35.98015445h819.73653773v819.73653776h-819.73653773v-819.73653776zM420.89106329 143.20950186000005c-4.58237815 0-9.16475635 1.69717709-12.72882824 5.26124898-6.95842607 6.95842607-6.95842607 18.32951266 0 25.45765647l214.01403191 214.01403188L408.16223505 601.9564711099999c-6.95842607 6.95842607-6.95842607 18.32951266 0 25.45765642 6.95842607 6.95842607 18.32951266 6.95842607 25.45765648 0l239.47168834-239.47168834-239.64140608-239.47168835c-3.39435416-3.56407189-7.97673233-5.26124901-12.5591105-5.26124898z"  horiz-adv-x="1024" />

    
    <glyph glyph-name="buy" unicode="&#58951;" d="M746.38015707 364.34954374999995c-9.84362716 0-17.99007725 7.97673233-17.99007722 17.99007718V600.9360310100001c0 116.93550196-95.21163513 212.14713709-212.14713708 212.14713711s-212.14713709-95.21163513-212.14713713-212.14713711v-218.59641008c0-9.84362716-7.97673233-17.99007725-17.99007721-17.99007718-9.84362716 0-17.99007725 7.97673233-17.99007723 17.99007718V600.9360310100001c0 136.792474 111.33481754 247.95757383 248.12729157 247.95757385s247.95757383-111.33481754 247.95757382-247.95757385v-218.59641008c0-9.84362716-7.97673233-17.99007725-17.82035952-17.99007718zM899.29581348-72.50384097000006H124.70418652V560.71293384h161.40154191c9.84362716 0 17.99007725-7.97673233 17.99007721-17.99007723s-7.97673233-17.99007725-17.99007721-17.99007724h-125.59110516v-561.42618361H863.31565903V542.72285661c0 9.84362716 7.97673233 17.99007725 17.99007723 17.99007723 9.84362716 0 17.99007725-7.97673233 17.99007722-17.99007723v-615.22669758zM746.38015707 524.90249706H404.39897207c-9.84362716 0-17.99007725 7.97673233-17.99007725 17.99007723s7.97673233 17.99007725 17.99007725 17.99007723h341.981185c9.84362716 0 17.99007725-7.97673233 17.99007721-17.99007723s-8.14645006-17.99007725-17.99007721-17.99007723z"  horiz-adv-x="1024" />

    
    <glyph glyph-name="email" unicode="&#58952;" d="M976.56489236 31.611541800000055H47.43510764V751.83919201h928.93970085v-720.22765021z m-879.89807149 49.04162939h830.85644207V702.79756262H96.66682087v-622.14439143zM512 332.89442003L57.31946706 677.13624492c-10.83477857 8.17360491-12.92570077 23.57039551-4.75209587 34.40517413 8.17360491 10.83477857 23.57039551 12.92570077 34.40517414 4.75209585L512 394.29149869l425.21753853 322.00201621c10.83477857 8.17360491 26.23156922 6.08268272 34.40517413-4.75209585 8.17360491-10.83477857 6.08268272-26.23156922-4.75209588-34.40517413L512 332.89442003z"  horiz-adv-x="1024" />

    
    <glyph glyph-name="home" unicode="&#58953;" d="M47.90603989 435.85269772c-5.51482766 0-11.02965537 2.5453051-14.5648013 7.4945094-5.79763935 8.06013279-3.95936347 19.23119396 4.10076929 25.02883332l476.67907968 342.20212778 472.43690456-336.82870595c8.06013279-5.79763935 9.89840867-16.96870056 4.24217513-25.02883331s-16.96870056-9.89840867-25.02883332-4.24217516L514.12108756 766.45954678 58.37007189 439.2464378c-3.25233431-2.40389927-6.92888609-3.3937401-10.464032-3.39374008zM875.41300348-20.181129650000003H603.91379464V252.73213757999997H436.20647088v-272.91326723H155.23307091V543.6039462c0 9.89840867 8.06013279 17.95854143 17.9585414 17.95854141s17.95854143-8.06013279 17.95854141-17.95854141v-528.00939882h209.42204597v272.91326721h239.25867779v-272.91326721h199.94785487V370.94741805c0 9.89840867 8.06013279 17.95854143 17.9585414 17.95854145 9.89840867 0 17.95854143-8.06013279 17.95854143-17.95854145V-20.181129650000003z"  horiz-adv-x="1024" />

    
    <glyph glyph-name="institution" unicode="&#58954;" d="M242.81220873 244.58464002000005c-124.8128 0-226.29376 101.48096-226.29375999 226.29376s101.48096 226.29376 226.29375999 226.29375998S469.10596876 595.69120002 469.10596876 470.87840002s-101.48096-226.29376-226.29376003-226.29376z m0 422.73279999c-108.38016 0-196.43904-88.18432001-196.43904-196.43903999s88.18432001-196.43904 196.43904-196.43904c108.38016 0 196.43904 88.18432001 196.43904001 196.43904s-88.05888 196.43904-196.43904001 196.43903999zM782.45508874 244.58464002000005C657.76772874 244.58464002000005 556.28676874 346.06560001 556.28676874 470.87840002s101.48096 226.29376 226.29376 226.29375998S1008.74884874 595.69120002 1008.74884874 470.87840002s-101.48096-226.29376-226.29376-226.29376z m0 422.73279999c-108.38016 0-196.43904-88.18432001-196.43904-196.43903999S674.20036874 274.43936002 782.45508874 274.43936002 979.01956874 362.49824001 979.01956874 470.87840002s-88.18432001 196.43904-196.56448 196.43903999zM782.45508874 58.05536000999996c-79.52896 0-151.7824 40.64256-193.30303999 108.5056-4.26496 7.02463999-2.00704 16.18176 4.89215999 20.44672001 7.02463999 4.26496 16.18176 2.00704 20.44672001-4.89216 36.00127999-59.08224 98.72128-94.33088 167.83871998-94.33088002 69.11744 0 131.96288 35.24864 167.96416002 94.45632001 4.26496 7.02463999 13.42207999 9.15712001 20.44672 5.01760001 7.02463999-4.26496 9.28255999-13.42207999 5.01759999-20.44672002-41.3952-67.98847999-113.64864-108.75648001-193.30304-108.75647999zM411.90532875 329.13120001000004c-3.26143999 0-6.52288001 1.12896001-9.28256001 3.26144-6.39743999 5.14303999-7.5264 14.55104-2.38335999 20.94848001L609.09700875 616.3888000100001c5.14303999 6.39743999 14.55104 7.5264 20.94847999 2.38336001s7.5264-14.55104 2.38336-20.94848L423.57124873 334.77600000999996c-2.88512-3.76320001-7.27552-5.6448-11.66591998-5.6448z"  horiz-adv-x="1024" />

    
    <glyph glyph-name="search" unicode="&#58955;" d="M984.8414742-110.62042824000002c-5.95042345 0-11.90084689 2.2038605-16.528954 6.83196766L713.54624253 150.53704504999996l16.74934005 16.528954c75.81280235 74.49048602 117.46576643 174.1049822 117.46576644 280.55144592 0 216.85987652-176.52922875 393.38910529-393.38910528 393.38910529S61.2035245 664.4773215 61.2035245 447.61744499s176.30884272-393.38910529 393.38910529-393.38910529c53.99458307 0 106.2260777 10.7989166 155.37216763 31.73559172 11.90084689 5.06887926 25.5647822-0.44077209 30.63366143-12.12123296 5.06887926-11.90084689-0.44077209-25.5647822-12.12123296-30.63366145-55.09651338-23.58130771-113.49881749-35.70254065-173.66421004-35.70254062C212.16797109 7.506496390000052 14.92245329 204.75201417000005 14.92245329 447.39705894s197.24551775 439.89056255 439.89056256 439.89056255 439.89056255-197.46590385 439.89056256-439.89056255c0-111.0745709-40.77141988-215.53756023-115.26190594-296.86001389l221.92875577-221.48798363c9.03582818-9.03582818 9.03582818-23.80169375 0-33.05790803-4.62810712-4.18733501-10.57853055-6.61158161-16.52895402-6.61158163z"  horiz-adv-x="1024" />

    
    <glyph glyph-name="service" unicode="&#58956;" d="M312.50889039 482.58905867m-51.33377473 0a51.33377474 51.33377474 0 1 1 102.66754947 0 51.33377474 51.33377474 0 1 1-102.66754947 0ZM708.8996228 482.58905867m-51.33377472 0a51.33377474 51.33377474 0 1 1 102.66754948 0 51.33377474 51.33377474 0 1 1-102.66754948 0ZM510.61388024 482.58905867m-51.33377473 0a51.33377474 51.33377474 0 1 1 102.66754946 0 51.33377474 51.33377474 0 1 1-102.66754946 0ZM305.09802855-64.00719067V147.65425373000005H69.03496582V832.52634h883.33858156V147.65425373000005h-435.61407438L305.09802855-64.00719067zM115.66916966 194.28845754999998h236.06306269v-145.68669873l145.68669873 145.68669873h408.32041248V785.89213618H115.66916966v-591.60367863z"  horiz-adv-x="1024" />

    
    <glyph glyph-name="user" unicode="&#58957;" d="M513.73416332 345.89218483c-133.46655057 0-242.18843364 108.72188305-242.18843366 242.18843361s108.72188305 242.18843364 242.18843366 242.18843365 242.18843364-108.72188305 242.18843363-242.18843365-108.56722887-242.18843364-242.18843363-242.18843361z m0 445.24936169c-111.96962064 0-203.06092807-91.0913074-203.06092809-203.06092808S401.91919683 385.01969037 513.73416332 385.01969037 716.79509138 476.11099779 716.79509138 588.0806184400001s-91.0913074 203.06092807-203.06092806 203.06092808zM937.48659509-58.21916709000004H90.13638572v19.64107987c0 144.29234265 72.37815259 277.29493072 193.47236939 355.70459601 9.12459616 5.87685855 21.18762157 3.24773762 27.06448012-5.72220438 5.87685855-9.12459616 3.24773762-21.18762157-5.72220437-27.06448013-104.5462204-67.73852741-169.03701019-180.01745643-175.22317709-303.27683164H897.74047284c-10.20717536 202.90627391-178.62556887 364.98384635-384.00630952 364.98384634-10.82579205 0-19.64107987 8.81528781-19.64107989 19.64107986s8.81528781 19.64107987 19.64107989 19.64107988c233.68245416 0 423.75243176-190.06997761 423.75243177-423.75243178v-19.79573403z"  horiz-adv-x="1024" />

    
    <glyph glyph-name="products" unicode="&#58958;" d="M959.12935854 6.100724239999977H68.51536769V779.32812683h890.61399085v-237.3673553h-849.59353941v-494.67745969h808.57308798V440.13925573c0 11.34953202 9.24176178 20.5912938 20.5912938 20.59129381s20.5912938-9.24176178 20.59129384-20.59129381v-434.03853149zM109.53581913 582.98122296h808.57308798v155.32645245H109.53581913V582.98122296z"  horiz-adv-x="1024" />

    
    <glyph glyph-name="arrow-down" unicode="&#58959;" d="M513.39299002 141.01150707L73.58300766 580.8214894c-12.80112218 12.80112218-12.80112218 33.83153711 0 46.63265927 12.80112218 12.80112218 33.83153711 12.80112218 46.63265924 0l393.17732312-393.1773231 393.17732308 393.1773231c12.80112218 12.80112218 33.83153711 12.80112218 46.63265928 0s12.80112218-33.83153711 0-46.63265927L513.39299002 141.01150707z"  horiz-adv-x="1024" />

    
    <glyph glyph-name="close" unicode="&#58960;" d="M968.13771674 741.73084377L874.74728187 835.12127865 519.99333829 480.3673351 165.23939472 835.12127865l-93.22829869-93.39043488 354.75394356-354.75394354-354.75394356-354.75394358 93.22829869-93.22829868 354.75394357 354.75394354L874.74728187-61.00534202999995l93.39043487 93.22829868-354.75394358 354.75394358z"  horiz-adv-x="1024" />

    
    <glyph glyph-name="arrow-up" unicode="&#59192;" d="M510.60700998 626.98849293L950.41699234 187.17851059999998c12.80112218-12.80112218 12.80112218-33.83153711 0-46.63265927-12.80112218-12.80112218-33.83153711-12.80112218-46.63265924 0l-393.17732312 393.1773231-393.17732308-393.1773231c-12.80112218-12.80112218-33.83153711-12.80112218-46.63265928 0s-12.80112218 33.83153711 0 46.63265927L510.60700998 626.98849293z"  horiz-adv-x="1024" />

    
    <glyph glyph-name="list" unicode="&#58961;" d="M64.30318113 818.3631715h895.39363774v-106.66917899H64.30318113zM64.30318113 437.33458951h895.39363774v-106.66917902H64.30318113zM64.30318113 56.306007489999956h895.39363774v-106.66917899H64.30318113z"  horiz-adv-x="1024" />

    


  </font>
</defs>
</svg>
